HIERARCHY
ROOT Hips
{
	OFFSET 0.00000 0.00000 0.00000
	CHANNELS 6 Xposition Yposition Zposition Zrotation Yrotation Xrotation 
	JOINT LHipJoint
	{
		OFFSET 0 0 0
		CHANNELS 3 Zrotation Yrotation Xrotation
		JOINT LeftUpLeg
		{
			OFFSET 2.36090 -1.39315 1.24752
			CHANNELS 3 Zrotation Yrotation Xrotation
			JOINT LeftLeg
			{
				OFFSET 2.06810 -5.68207 0.00000
				CHANNELS 3 Zrotation Yrotation Xrotation
				JOINT LeftFoot
				{
					OFFSET 2.46631 -6.77613 0.00000
					CHANNELS 3 Zrotation Yrotation Xrotation
					JOINT LeftToeBase
					{
						OFFSET 0.26031 -0.71520 1.99545
						CHANNELS 3 Zrotation Yrotation Xrotation
						End Site
						{
							OFFSET 0.00000 -0.00000 1.05957
						}
					}
				}
			}
		}
	}
	JOINT RHipJoint
	{
		OFFSET 0 0 0
		CHANNELS 3 Zrotation Yrotation Xrotation
		JOINT RightUpLeg
		{
			OFFSET -2.25243 -1.39315 1.24752
			CHANNELS 3 Zrotation Yrotation Xrotation
			JOINT RightLeg
			{
				OFFSET -2.17343 -5.97145 0.00000
				CHANNELS 3 Zrotation Yrotation Xrotation
				JOINT RightFoot
				{
					OFFSET -2.52372 -6.93386 0.00000
					CHANNELS 3 Zrotation Yrotation Xrotation
					JOINT RightToeBase
					{
						OFFSET -0.22538 -0.61923 2.11447
						CHANNELS 3 Zrotation Yrotation Xrotation
						End Site
						{
							OFFSET -0.00000 -0.00000 1.10506
						}
					}
				}
			}
		}
	}
	JOINT LowerBack
	{
		OFFSET 0 0 0
		CHANNELS 3 Zrotation Yrotation Xrotation
		JOINT Spine
		{
			OFFSET 0.01594 2.13103 0.08007
			CHANNELS 3 Zrotation Yrotation Xrotation
			JOINT Spine1
			{
				OFFSET 0.01393 2.09723 0.18338
				CHANNELS 3 Zrotation Yrotation Xrotation
				JOINT Neck
				{
					OFFSET 0 0 0
					CHANNELS 3 Zrotation Yrotation Xrotation
					JOINT Neck1
					{
						OFFSET 0.05351 1.38915 0.32494
						CHANNELS 3 Zrotation Yrotation Xrotation
						JOINT Head
						{
							OFFSET 0.00711 1.45992 -0.21666
							CHANNELS 3 Zrotation Yrotation Xrotation
							End Site
							{
								OFFSET -0.00433 1.47702 -0.11056
							}
						}
					}
				}
				JOINT LeftShoulder
				{
					OFFSET 0 0 0
					CHANNELS 3 Zrotation Yrotation Xrotation
					JOINT LeftArm
					{
						OFFSET 2.87198 0.92249 0.11132
						CHANNELS 3 Zrotation Yrotation Xrotation
						JOINT LeftForeArm
						{
							OFFSET 5.52731 -0.00000 0.00000
							CHANNELS 3 Zrotation Yrotation Xrotation
							JOINT LeftHand
							{
								OFFSET 3.11059 -0.00000 0.00000
								CHANNELS 3 Zrotation Yrotation Xrotation
								JOINT LeftFingerBase
								{
									OFFSET 0 0 0
									CHANNELS 3 Zrotation Yrotation Xrotation
									JOINT LeftHandIndex1
									{
										OFFSET 0.41963 -0.00000 0.00000
										CHANNELS 3 Zrotation Yrotation Xrotation
										End Site
										{
											OFFSET 0.33831 -0.00000 0.00000
										}
									}
								}
								JOINT LThumb
								{
									OFFSET 0 0 0
									CHANNELS 3 Zrotation Yrotation Xrotation
									End Site
									{
										OFFSET 0.34348 -0.00000 0.34348
									}
								}
							}
						}
					}
				}
				JOINT RightShoulder
				{
					OFFSET 0 0 0
					CHANNELS 3 Zrotation Yrotation Xrotation
					JOINT RightArm
					{
						OFFSET -2.94710 0.68072 0.32187
						CHANNELS 3 Zrotation Yrotation Xrotation
						JOINT RightForeArm
						{
							OFFSET -5.25396 -0.00000 -0.00000
							CHANNELS 3 Zrotation Yrotation Xrotation
							JOINT RightHand
							{
								OFFSET -3.10567 -0.00000 0.00000
								CHANNELS 3 Zrotation Yrotation Xrotation
								JOINT RightFingerBase
								{
									OFFSET 0 0 0
									CHANNELS 3 Zrotation Yrotation Xrotation
									JOINT RightHandIndex1
									{
										OFFSET -0.49868 -0.00000 0.00000
										CHANNELS 3 Zrotation Yrotation Xrotation
										End Site
										{
											OFFSET -0.40204 -0.00000 0.00000
										}
									}
								}
								JOINT RThumb
								{
									OFFSET 0 0 0
									CHANNELS 3 Zrotation Yrotation Xrotation
									End Site
									{
										OFFSET -0.40818 -0.00000 0.40818
									}
								}
							}
						}
					}
				}
			}
		}
	}
}
MOTION
Frames: 14
Frame Time: .0083333
7.8394 15.9469 14.7023 -0.3699 -2.0971 21.3316 0.0000 0.0000 0.0000 -16.4951 -20.6716 -72.4811 22.8570 19.8032 98.3796 -0.0514 5.2248 -5.4619 0.9887 -6.3287 -17.7412 0.0000 0.0000 0.0000 22.9097 21.1410 -25.1721 -2.0281 -8.9244 25.5590 -0.4366 -0.0722 -12.5099 -0.3940 4.0302 -11.1616 6.0860 -2.4040 -9.6759 7.5208 -3.9097 -4.0959 4.0137 -1.9705 1.2689 0.7937 -6.2412 -7.5664 -2.0896 -8.3096 15.9078 -1.3853 -4.1460 5.9319 -0.0000 0.0000 0.0000 -77.4861 11.4692 6.8266 24.2717 -35.4503 -7.8636 -0.0000 0.0000 -40.7678 21.9487 -6.6625 -2.6769 -7.1250 0.0000 -0.0000 -3.5337 22.8057 1.8912 -0.0000 0.0000 0.0000 76.7238 -2.1540 5.0117 -20.8445 31.6464 -5.9681 0.0000 -0.0000 -8.4659 -16.2500 -15.3810 4.4207 7.1250 -0.0000 -0.0000 10.6663 -45.6929 -0.1845
7.8197 15.9220 14.7783 -0.3931 -2.5585 21.3611 0.0000 0.0000 0.0000 -16.4369 -20.4798 -72.1613 21.8911 19.9140 95.5368 -0.0507 5.2322 -5.5100 1.0071 -6.3856 -17.9074 0.0000 0.0000 0.0000 23.0327 21.2145 -25.2457 -2.1241 -9.1200 26.1714 -0.4772 0.3256 -12.9411 -0.3724 3.9195 -10.8504 5.8931 -2.4343 -9.7674 7.2075 -3.9448 -4.0104 3.7784 -1.9856 1.4019 0.4930 -6.2819 -7.6713 -1.7557 -8.3757 15.7912 -1.2407 -4.1707 5.9411 -0.0000 -0.0000 0.0000 -77.1029 11.0799 6.5863 24.3593 -35.5419 -7.9144 -0.0000 0.0000 -40.9460 22.1004 -6.6843 -2.7061 -7.1250 0.0000 -0.0000 -3.4224 22.7744 1.8339 -0.0000 -0.0000 0.0000 77.2527 -2.1121 5.2631 -20.4980 31.2377 -5.7874 0.0000 -0.0000 -8.2775 -15.7663 -15.4615 4.3044 7.1250 -0.0000 -0.0000 11.1309 -45.7143 -0.1987
7.8000 15.8978 14.8552 -0.4334 -3.0000 21.4075 0.0000 0.0000 0.0000 -16.3670 -20.2921 -71.8061 20.8951 19.9808 92.6179 -0.0491 5.1843 -5.4923 1.0364 -6.4751 -18.1692 0.0000 0.0000 0.0000 23.1736 21.2759 -25.2954 -2.2123 -9.2950 26.7224 -0.5172 0.7232 -13.3545 -0.3455 3.7771 -10.4505 5.7149 -2.4658 -9.8675 6.9027 -3.9813 -3.9374 3.5447 -2.0018 1.5255 0.2099 -6.3268 -7.7797 -1.4322 -8.4475 15.6832 -1.1031 -4.1977 5.9526 -0.0000 0.0000 0.0000 -76.7345 10.6940 6.3494 24.4272 -35.6127 -7.9539 -0.0000 0.0000 -41.1274 22.1674 -6.6724 -2.7104 -7.1250 0.0000 -0.0000 -3.3729 22.7838 1.8066 -0.0000 0.0000 0.0000 77.7585 -2.1092 5.5331 -20.1787 30.8571 -5.6227 0.0000 -0.0000 -8.0668 -15.2622 -15.5269 4.1776 7.1250 -0.0000 -0.0000 11.6097 -45.7175 -0.2084
7.7804 15.8744 14.9335 -0.4909 -3.4200 21.4632 0.0000 0.0000 0.0000 -16.2867 -20.1106 -71.4053 19.8744 19.9996 89.6326 -0.0467 5.0839 -5.4095 1.0775 -6.5981 -18.5300 0.0000 0.0000 0.0000 23.3355 21.3278 -25.3070 -2.2914 -9.4484 27.2082 -0.5561 1.1128 -13.7473 -0.3158 3.6124 -9.9887 5.5561 -2.5000 -9.9781 6.6040 -4.0222 -3.8718 3.3065 -2.0202 1.6462 -0.0554 -6.3760 -7.8803 -1.1151 -8.5259 15.5739 -0.9706 -4.2272 5.9616 -0.0000 0.0000 0.0000 -76.3781 10.3094 6.1109 24.4734 -35.6609 -7.9809 -0.0000 0.0000 -41.2962 22.1679 -6.6168 -2.6880 -7.1250 0.0000 -0.0000 -3.3722 22.8435 1.8016 -0.0000 0.0000 0.0000 78.2442 -2.1482 5.8373 -19.8944 30.5149 -5.4776 0.0000 -0.0000 -7.8486 -14.7603 -15.5671 4.0444 7.1250 -0.0000 -0.0000 12.0791 -45.6958 -0.2105
7.7609 15.8517 15.0132 -0.5674 -3.8248 21.5154 0.0000 0.0000 0.0000 -16.2001 -19.9282 -70.9456 18.8350 19.9674 86.5920 -0.0441 4.9423 -5.2630 1.1301 -6.7519 -18.9823 0.0000 0.0000 0.0000 23.5227 21.3698 -25.2623 -2.3606 -9.5799 27.6266 -0.5935 1.4939 -14.1167 -0.2859 3.4385 -9.5022 5.4120 -2.5350 -10.0805 6.3162 -4.0632 -3.8122 3.0726 -2.0389 1.7552 -0.3086 -6.4279 -7.9855 -0.8086 -8.6076 15.4772 -0.8441 -4.2582 5.9746 -0.0000 0.0000 0.0000 -76.0423 9.9289 5.8746 24.4957 -35.6841 -7.9939 -0.0000 0.0000 -41.4403 22.1080 -6.5402 -2.6491 -7.1250 0.0000 -0.0000 -3.4157 22.9289 1.8182 -0.0000 0.0000 0.0000 78.6980 -2.2352 6.1857 -19.6453 30.2126 -5.3517 0.0000 -0.0000 -7.6403 -14.2882 -15.5895 3.9154 7.1250 -0.0000 -0.0000 12.5155 -45.6601 -0.2072
7.7415 15.8296 15.0937 -0.6594 -4.2048 21.5724 0.0000 0.0000 0.0000 -16.0962 -19.7601 -70.4465 17.7840 19.8818 83.5085 -0.0424 4.7874 -5.0431 1.1866 -6.9129 -19.4576 0.0000 0.0000 0.0000 23.7319 21.3996 -25.1742 -2.4193 -9.6896 27.9774 -0.6289 1.8505 -14.4614 -0.2570 3.2616 -9.0080 5.2753 -2.5735 -10.1745 6.0425 -4.1072 -3.7648 2.8504 -2.0593 1.8471 -0.5573 -6.4821 -8.0870 -0.5073 -8.6920 15.3890 -0.7204 -4.2905 5.9897 -0.0000 0.0000 0.0000 -75.7304 9.5584 5.6512 24.4994 -35.6879 -7.9960 -0.0000 0.0000 -41.5620 22.0025 -6.4454 -2.5972 -7.1250 0.0000 -0.0000 -3.4928 23.0361 1.8508 -0.0000 0.0000 0.0000 79.1143 -2.3751 6.5846 -19.4334 29.9537 -5.2455 0.0000 -0.0000 -7.4559 -13.8472 -15.5898 3.7901 7.1250 -0.0000 -0.0000 12.9165 -45.6063 -0.1966
7.7225 15.8082 15.1752 -0.7677 -4.5692 21.6168 0.0000 0.0000 0.0000 -15.9812 -19.5987 -69.8874 16.7294 19.7416 80.3977 -0.0423 4.6514 -4.7683 1.2528 -7.0960 -20.0000 0.0000 0.0000 0.0000 23.9671 21.4136 -25.0229 -2.4672 -9.7780 28.2609 -0.6625 2.1863 -14.7853 -0.2305 3.0898 -8.5290 5.1477 -2.6129 -10.2476 5.7818 -4.1508 -3.7173 2.6380 -2.0797 1.9275 -0.8003 -6.5372 -8.2093 -0.2110 -8.7770 15.3185 -0.6006 -4.3227 6.0137 0.0000 0.0000 0.0000 -75.4442 9.1883 5.4401 24.4817 -35.6696 -7.9857 -0.0000 0.0000 -41.6468 21.8665 -6.3387 -2.5370 -7.1250 0.0000 -0.0000 -3.5925 23.1574 1.8939 0.0000 0.0000 0.0000 79.4907 -2.5512 7.0274 -19.2508 29.7291 -5.1546 0.0000 -0.0000 -7.2884 -13.4521 -15.5772 3.6752 7.1250 -0.0000 -0.0000 13.2714 -45.5455 -0.1819
7.7039 15.7876 15.2578 -0.8909 -4.9195 21.6480 0.0000 0.0000 0.0000 -15.8495 -19.4498 -69.2736 15.6818 19.5469 77.2822 -0.0441 4.5535 -4.4499 1.3251 -7.2901 -20.5777 0.0000 0.0000 0.0000 24.2265 21.4090 -24.8115 -2.5046 -9.8463 28.4804 -0.6944 2.5028 -15.0898 -0.2071 2.9302 -8.0844 5.0315 -2.6509 -10.3014 5.5302 -4.1915 -3.6687 2.4305 -2.0989 1.9980 -1.0385 -6.5949 -8.3416 0.0852 -8.8661 15.2581 -0.4827 -4.3563 6.0429 0.0000 0.0000 0.0000 -75.1776 8.8186 5.2518 24.4437 -35.6299 -7.9635 -0.0000 0.0000 -41.6979 21.7306 -6.2270 -2.4754 -7.1250 0.0000 -0.0000 -3.6925 23.2838 1.9360 0.0000 0.0000 0.0000 79.8301 -2.7710 7.5267 -19.1047 29.5485 -5.0824 0.0000 -0.0000 -7.1595 -13.1115 -15.5606 3.5753 7.1250 -0.0000 -0.0000 13.5749 -45.4876 -0.1665
7.6858 15.7675 15.3410 -1.0264 -5.2585 21.6657 0.0000 0.0000 0.0000 -15.6965 -19.3181 -68.6143 14.6516 19.2999 74.1848 -0.0480 4.5127 -4.0910 1.4005 -7.4862 -21.1640 0.0000 0.0000 0.0000 24.5052 21.3917 -24.5446 -2.5323 -9.8963 28.6417 -0.7246 2.7950 -15.3756 -0.1882 2.7942 -7.7062 4.9240 -2.6853 -10.3375 5.2857 -4.2271 -3.6092 2.2270 -2.1153 2.0697 -1.2673 -6.6552 -8.5111 0.3801 -8.9590 15.2097 -0.3687 -4.3906 6.0823 -0.0000 0.0000 0.0000 -74.9282 8.4338 5.0930 24.3882 -35.5721 -7.9313 -0.0000 0.0000 -41.7168 21.5977 -6.1339 -2.4222 -7.1250 0.0000 -0.0000 -3.7906 23.3898 1.9785 -0.0000 0.0000 0.0000 80.1357 -3.0062 8.0642 -18.9822 29.3965 -5.0221 0.0000 -0.0000 -7.0591 -12.8428 -15.5294 3.4929 7.1250 -0.0000 -0.0000 13.8085 -45.4242 -0.1474
7.6681 15.7480 15.4246 -1.1714 -5.5825 21.6774 0.0000 0.0000 0.0000 -15.5052 -19.2192 -67.9238 13.6482 19.0038 71.1271 -0.0528 4.5119 -3.7111 1.4749 -7.6740 -21.7282 0.0000 0.0000 0.0000 24.7960 21.3717 -24.2350 -2.5517 -9.9314 28.7548 -0.7533 3.0575 -15.6474 -0.1746 2.6917 -7.4217 4.8168 -2.7222 -10.3611 5.0545 -4.2651 -3.5476 2.0377 -2.1330 2.1375 -1.4994 -6.7162 -8.6894 0.6774 -9.0519 15.1620 -0.2541 -4.4247 6.1241 -0.0000 0.0000 0.0000 -74.7095 8.0456 4.9426 24.3126 -35.4931 -7.8873 -0.0000 0.0000 -41.6850 21.4875 -6.0337 -2.3695 -7.1250 0.0000 -0.0000 -3.8720 23.5021 2.0112 -0.0000 0.0000 0.0000 80.3955 -3.2722 8.6724 -18.8931 29.2856 -4.9784 0.0000 -0.0000 -7.0053 -12.6447 -15.5184 3.4350 7.1250 -0.0000 -0.0000 13.9843 -45.3894 -0.1371
7.6506 15.7288 15.5084 -1.3233 -5.8901 21.6926 0.0000 0.0000 0.0000 -15.2645 -19.1638 -67.2228 12.6803 18.6637 68.1297 -0.0579 4.5396 -3.3116 1.5403 -7.8345 -22.2125 0.0000 0.0000 0.0000 25.0924 21.3593 -23.9010 -2.5653 -9.9557 28.8335 -0.7808 3.2865 -15.9071 -0.1671 2.6333 -7.2593 4.7122 -2.7585 -10.3818 4.8290 -4.3022 -3.4840 1.8534 -2.1501 2.2058 -1.7208 -6.7828 -8.8776 0.9742 -9.1531 15.1101 -0.1423 -4.4617 6.1663 0.0000 -0.0000 0.0000 -74.5056 7.6573 4.8210 24.2300 -35.4065 -7.8394 -0.0000 0.0000 -41.6240 21.3882 -5.9433 -2.3223 -7.1250 0.0000 -0.0000 -3.9457 23.6033 2.0404 0.0000 -0.0000 0.0000 80.6260 -3.5629 9.3308 -18.8335 29.2113 -4.9493 0.0000 -0.0000 -6.9845 -12.5219 -15.5040 3.3975 7.1250 -0.0000 -0.0000 14.0907 -45.3605 -0.1279
7.6330 15.7095 15.5920 -1.4778 -6.1790 21.7150 0.0000 0.0000 0.0000 -14.9667 -19.1618 -66.5222 11.7541 18.2848 65.2073 -0.0621 4.5691 -2.9143 1.5892 -7.9522 -22.5690 0.0000 0.0000 0.0000 25.3876 21.3627 -23.5538 -2.5755 -9.9739 28.8921 -0.8075 3.4801 -16.1604 -0.1637 2.6070 -7.1863 4.6019 -2.7985 -10.4011 4.6117 -4.3431 -3.4221 1.6807 -2.1691 2.2723 -1.9378 -6.8507 -9.0635 1.2736 -9.2561 15.0463 -0.0304 -4.4992 6.2048 -0.0000 0.0000 0.0000 -74.3225 7.2751 4.7222 24.1418 -35.3139 -7.7884 -0.0000 0.0000 -41.5359 21.3088 -5.8557 -2.2789 -7.1250 0.0000 -0.0000 -4.0047 23.7004 2.0621 -0.0000 0.0000 0.0000 80.8247 -3.8701 10.0305 -18.7942 29.1622 -4.9302 0.0000 -0.0000 -6.9761 -12.4638 -15.5037 3.3812 7.1250 -0.0000 -0.0000 14.1429 -45.3531 -0.1258
7.6155 15.6898 15.6759 -1.6342 -6.4524 21.7418 0.0000 0.0000 0.0000 -14.6094 -19.2156 -65.8223 10.8736 17.8727 62.3704 -0.0646 4.5809 -2.5672 1.6214 -8.0285 -22.8005 0.0000 0.0000 0.0000 25.6803 21.3826 -23.1955 -2.5837 -9.9885 28.9396 -0.8340 3.6456 -16.4114 -0.1650 2.6172 -7.2148 4.4836 -2.8415 -10.4210 4.4026 -4.3872 -3.3612 1.5207 -2.1897 2.3392 -2.1448 -6.9205 -9.2438 1.5694 -9.3616 14.9721 0.0790 -4.5374 6.2389 -0.0000 0.0000 0.0000 -74.1608 6.8967 4.6390 24.0407 -35.2073 -7.7300 -0.0000 0.0000 -41.4123 21.2390 -5.7822 -2.2424 -7.1250 0.0000 -0.0000 -4.0568 23.7820 2.0814 -0.0000 0.0000 0.0000 80.9922 -4.1949 10.7655 -18.7742 29.1371 -4.9204 0.0000 -0.0000 -6.9722 -12.4657 -15.5092 3.3829 7.1250 -0.0000 -0.0000 14.1430 -45.3588 -0.1278
7.5979 15.6693 15.7598 -1.7916 -6.7079 21.7765 0.0000 0.0000 0.0000 -14.1870 -19.3308 -65.1327 10.0410 17.4329 59.6254 -0.0652 4.5647 -2.3006 1.6344 -8.0590 -22.8934 0.0000 0.0000 0.0000 25.9703 21.4141 -22.8357 -2.5910 -10.0015 28.9815 -0.8603 3.7853 -16.6603 -0.1688 2.6471 -7.2979 4.3555 -2.8875 -10.4410 4.2030 -4.4338 -3.3066 1.3759 -2.2117 2.4010 -2.3404 -6.9932 -9.4071 1.8566 -9.4706 14.8835 0.1844 -4.5775 6.2651 -0.0000 0.0000 0.0000 -74.0198 6.5302 4.5842 23.9306 -35.0908 -7.6666 -0.0000 0.0000 -41.2738 21.1806 -5.7312 -2.2159 -7.1250 0.0000 -0.0000 -4.1003 23.8389 2.0984 -0.0000 0.0000 0.0000 81.1291 -4.5434 11.5197 -18.7727 29.1353 -4.9197 0.0000 -0.0000 -6.9609 -12.5141 -15.5084 3.3963 7.1250 -0.0000 -0.0000 14.0989 -45.3638 -0.1292
